<svg xmlns="http://www.w3.org/2000/svg" width="9" height="17" viewBox="0 0 9 17">
    <g>
        <path fill="#071129" d="M30.738 0h-2.159a3.834 3.834 0 0 0-3.992 4.184v1.929h-2.17a.343.343 0 0 0-.339.347v2.794a.343.343 0 0 0 .339.347h2.17v7.052a.343.343 0 0 0 .339.347h2.832a.343.343 0 0 0 .339-.347V9.6h2.538a.343.343 0 0 0 .339-.347V6.46a.351.351 0 0 0-.1-.245.336.336 0 0 0-.24-.1H28.1V4.477c0-.786.183-1.185 1.186-1.185h1.454a.343.343 0 0 0 .339-.347V.35a.343.343 0 0 0-.341-.35z" transform="translate(-22.077)"/>
    </g>
</svg>
