<svg xmlns="http://www.w3.org/2000/svg" width="17" height="17" viewBox="0 0 17 17">
    <defs>
        <style>
            .cls-1{fill:#071129}
        </style>
    </defs>
    <g id="linkedin" transform="translate(0 -.341)">
        <path id="XMLID_802_" d="M8.6 99.73H5.2a.273.273 0 0 0-.273.273v10.931a.273.273 0 0 0 .273.273h3.4a.273.273 0 0 0 .273-.273V100a.273.273 0 0 0-.273-.27z" class="cls-1" transform="translate(-4.658 -93.867)"/>
        <path id="XMLID_803_" d="M2.245.341a2.243 2.243 0 1 0 2.244 2.243A2.247 2.247 0 0 0 2.245.341z" class="cls-1"/>
        <path id="XMLID_804_" d="M112.971 94.761a4 4 0 0 0-2.99 1.255v-.71a.273.273 0 0 0-.273-.273h-3.259a.273.273 0 0 0-.273.273v10.931a.273.273 0 0 0 .273.273h3.4a.273.273 0 0 0 .273-.273v-5.408c0-1.823.5-2.533 1.766-2.533 1.384 0 1.494 1.138 1.494 2.626v5.315a.273.273 0 0 0 .273.273h3.4a.273.273 0 0 0 .273-.273v-6c-.008-2.706-.528-5.476-4.357-5.476z" class="cls-1" transform="translate(-100.321 -89.17)"/>
    </g>
</svg>
