<svg xmlns="http://www.w3.org/2000/svg" width="21" height="17" viewBox="0 0 21 17">
    <g>
        <g>
            <path fill="#071129" d="M21 50.013a9 9 0 0 1-2.481.677 4.268 4.268 0 0 0 1.894-2.371 8.623 8.623 0 0 1-2.73 1.038 4.308 4.308 0 0 0-7.447 2.933 4.4 4.4 0 0 0 .1.978 12.2 12.2 0 0 1-8.874-4.487 4.28 4.28 0 0 0 1.323 5.733 4.264 4.264 0 0 1-1.945-.527v.047a4.313 4.313 0 0 0 3.449 4.215 4.312 4.312 0 0 1-1.129.141 3.82 3.82 0 0 1-.815-.073A4.344 4.344 0 0 0 6.368 61.3a8.671 8.671 0 0 1-5.338 1.834A8.093 8.093 0 0 1 0 63.075 12.153 12.153 0 0 0 6.6 65a12.145 12.145 0 0 0 12.258-12.206c0-.19-.007-.373-.016-.554A8.571 8.571 0 0 0 21 50.013z" transform="translate(0 -48) translate(0 48) translate(0 -48)"/>
        </g>
    </g>
</svg>
