<svg xmlns="http://www.w3.org/2000/svg" width="163" height="35" viewBox="0 0 163 35">
    <defs>
        <style>
            .cls-1,.cls-2{fill:#fff}.cls-1,.cls-3{fill-rule:evenodd}.cls-3{fill:#3067f1}
        </style>
    </defs>
    <g id="Group_18099" transform="translate(-315.608 -232.172)">
        <path id="Path_1" d="M790.578 280.5a12.143 12.143 0 0 0 7.057 2.352c3.692 0 6.985-2.063 6.985-5.429 0-6.08-8.505-5.175-8.505-7.456 0-.9 1.086-1.411 2.389-1.411a5.918 5.918 0 0 1 3.366 1.194l2.208-3.4a10.888 10.888 0 0 0-5.935-1.774c-3.474 0-6.732 2.1-6.732 5.465 0 5.646 8.505 4.705 8.505 7.347 0 .868-.977 1.484-2.244 1.484a7.389 7.389 0 0 1-4.813-1.738z" class="cls-1" transform="translate(-326.013 -22.25)"/>
        <path id="Path_2" d="M746.416 265.308a11.464 11.464 0 0 1-1.918.181 2.981 2.981 0 0 1-2.389-.868 3.231 3.231 0 0 1-.579-2.208v-6.7h5.791v-3.981h-5.791v-6.391h-4.705v6.391h-7.776v3.981h7.776v6.153c0 2.5.4 4.054 1.3 5.248 1.195 1.592 3.257 2.533 6.08 2.533a11.583 11.583 0 0 0 2.932-.362z" class="cls-1" transform="translate(-283.775 -9.043)"/>
        <path id="Rectangle_1" d="M0 0H4.705V17.553H0z" class="cls-2" transform="translate(443.614 242.687)"/>
        <path id="Path_3" d="M663.982 266.575c0 1.339 1.737 3.076 4.886 3.076a8.826 8.826 0 0 0 6.623-2.968 9.424 9.424 0 0 0 2.244-6.153c0-5.175-3.837-9.157-8.614-9.157-3.185 0-4.813 1.556-4.958 2.968v-9h-4.7v23.944h4.524v-2.715zm.181-8.686a5.4 5.4 0 0 1 4.343-2.171 4.8 4.8 0 0 1-.109 9.591 5.141 5.141 0 0 1-4.234-2.171z" class="cls-1" transform="translate(-236.013 -9.043)"/>
        <path id="Path_4" d="M607.924 280.5a12.143 12.143 0 0 0 7.057 2.352c3.692 0 6.985-2.063 6.985-5.429 0-6.08-8.505-5.175-8.505-7.456 0-.9 1.086-1.411 2.389-1.411a5.919 5.919 0 0 1 3.366 1.194l2.208-3.4a10.887 10.887 0 0 0-5.935-1.774c-3.475 0-6.732 2.1-6.732 5.465 0 5.646 8.505 4.705 8.505 7.347 0 .868-.977 1.484-2.244 1.484a7.391 7.391 0 0 1-4.814-1.738z" class="cls-1" transform="translate(-200.642 -22.25)"/>
        <ellipse id="Ellipse_1" cx="3.076" cy="3.004" class="cls-2" rx="3.076" ry="3.004" transform="translate(442.89 234.918)"/>
        <ellipse id="Ellipse_2" cx="3.076" cy="3.004" class="cls-2" rx="3.076" ry="3.004" transform="translate(399.853 234.918)"/>
        <path id="Rectangle_2" d="M0 0H4.705V17.553H0z" class="cls-2" transform="translate(400.577 242.687)"/>
        <path id="Path_5" d="M526.016 265.729h-5.393l5.9 8.18-6.732 9.374h5.573l4.126-5.936 4.126 5.936h5.574l-6.732-9.374 5.9-8.18h-5.393l-3.474 4.995z" class="cls-1" transform="translate(-140.148 -23.042)"/>
        <path id="Path_7" d="M471.179 282.489h4.521v-17.553h-4.524v2.715c-.072-1.339-1.809-3.077-5.139-3.077-4.778 0-8.614 3.982-8.614 9.157a9.422 9.422 0 0 0 2.244 6.153 8.826 8.826 0 0 0 6.623 2.968c3.149 0 4.886-1.737 4.886-3.076v2.715zm-.179-6.152a5.141 5.141 0 0 1-4.234 2.171 4.8 4.8 0 0 1-.109-9.591 5.4 5.4 0 0 1 4.343 2.172z" class="cls-1" transform="translate(-97.341 -22.25)"/>
        <g id="Group_17513">
            <path id="Path_6" d="M361.749 309.142l-.906-.907a4.555 4.555 0 0 0-6.438 0l-8.806 8.808a17.4 17.4 0 0 0 3.136.991 20.208 20.208 0 0 0 3.68.44l.668.01a11.2 11.2 0 0 0 8.666-3.5l1.735-3.445z" class="cls-3" transform="translate(-20.588 -51.313)"/>
            <path id="Path_8" fill="#00adff" fill-rule="evenodd" d="M341.161 282.993v-3-21.083l3.23-2.973 6.078 2.973h.005a17.163 17.163 0 0 1 1.077 6.144v17.937zm-15.243-24.081l-1.533-.561-3.313-1.212-3.993 1.772a19.973 19.973 0 0 0-1.472 7.787 18.14 18.14 0 0 0 2.065 8.709l9.272-9.273-.069.073.053-.056a4.553 4.553 0 0 0-.1-6.332l-.91-.907z" transform="translate(0 -16.326)"/>
            <path id="Path_9" d="M320.3 242.6c5.951-14.2 28.219-13.6 33.39 0H320.3z" class="cls-3" transform="translate(-3.219)"/>
        </g>
    </g>
</svg>
